<svg width="16" height="12" viewBox="0 0 16 12" fill="none" xmlns="http://www.w3.org/2000/svg">
<path fill-rule="evenodd" clip-rule="evenodd" d="M8.00006 3.5C8.00006 3.5 9.03559 3.5 9.76783 4.23223C9.76783 4.23223 10.5001 4.96447 10.5001 6C10.5001 6 10.5001 7.03553 9.76783 7.76777C9.76783 7.76777 9.03559 8.5 8.00006 8.5C8.00006 8.5 6.96453 8.5 6.23229 7.76777C6.23229 7.76777 5.50006 7.03553 5.50006 6C5.50006 6 5.50006 4.96447 6.23229 4.23223C6.23229 4.23223 6.96453 3.5 8.00006 3.5ZM8.00006 4.5C8.00006 4.5 7.37874 4.5 6.9394 4.93934C6.9394 4.93934 6.50006 5.37868 6.50006 6C6.50006 6 6.50006 6.62132 6.9394 7.06066C6.9394 7.06066 7.37874 7.5 8.00006 7.5C8.00006 7.5 8.62138 7.5 9.06072 7.06066C9.06072 7.06066 9.50006 6.62132 9.50006 6C9.50006 6 9.50006 5.37868 9.06072 4.93934C9.06072 4.93934 8.62138 4.5 8.00006 4.5Z" fill="#1C1C1C"/>
<path d="M5.17217 3.17247C5.26593 3.07871 5.31881 2.95133 5.31881 2.81873C5.31881 2.68621 5.2662 2.55912 5.17256 2.46537C5.07879 2.3716 4.95142 2.31873 4.81881 2.31873C4.68629 2.31873 4.5592 2.37133 4.46545 2.46498C3.77418 3.15549 3.39541 4.05614 3.39541 4.05614C2.99994 4.98687 2.99994 5.99998 2.99994 5.99998C2.99994 7.01308 3.39613 7.94551 3.39613 7.94551C3.77418 8.84447 4.46545 9.53497 4.46545 9.53497C4.5592 9.62862 4.6863 9.68122 4.81881 9.68122C4.95142 9.68115 5.07884 9.6284 5.17256 9.53458C5.2662 9.44083 5.31881 9.31374 5.31881 9.18123C5.31873 9.04862 5.26599 8.92119 5.17217 8.82748C4.61984 8.27576 4.31649 7.55444 4.31649 7.55444C3.99994 6.80944 3.99994 5.99998 3.99994 5.99998C3.99994 5.19051 4.31721 4.44381 4.31721 4.44381C4.61985 3.72419 5.17217 3.17247 5.17217 3.17247Z" fill="#1C1C1C"/>
<path d="M11.5349 2.46517C12.226 3.15561 12.604 4.05444 12.604 4.05444C13.0002 4.98687 13.0002 5.99998 13.0002 5.99998C13.0002 7.01308 12.6047 7.94381 12.6047 7.94381C12.2259 8.84446 11.5347 9.53497 11.5347 9.53497C11.4472 9.62237 11.3304 9.67424 11.2069 9.68057C11.1984 9.68101 11.1898 9.68122 11.1813 9.68122C11.0486 9.68122 10.9213 9.62847 10.8276 9.53458C10.7397 9.44664 10.6878 9.32913 10.6819 9.20497C10.6815 9.19706 10.6813 9.18914 10.6813 9.18122C10.6814 9.04862 10.7341 8.92119 10.8279 8.82748C11.3803 8.27576 11.6829 7.55614 11.6829 7.55614C12.0002 6.80944 12.0002 5.99998 12.0002 5.99998C12.0002 5.19051 11.6836 4.44551 11.6836 4.44551C11.3803 3.72419 10.8279 3.17247 10.8279 3.17247C10.7341 3.07869 10.6813 2.95143 10.6813 2.81873C10.6813 2.68724 10.7331 2.56104 10.8255 2.46747L10.8276 2.46537C10.9104 2.38246 11.0197 2.33128 11.1364 2.32075C11.1512 2.31941 11.1661 2.31873 11.181 2.31873C11.3114 2.31873 11.4369 2.36964 11.5303 2.46063L11.5349 2.46517Z" fill="#1C1C1C"/>
<path d="M3.4036 1.4036L3.40588 1.40131C3.49825 1.30773 3.55005 1.18154 3.55005 1.05005C3.55005 0.917282 3.49724 0.789966 3.40328 0.696172L3.399 0.691949C3.30563 0.600966 3.18042 0.550049 3.05005 0.550049C3.0352 0.550062 3.01991 0.550737 3.00512 0.552071C2.88835 0.562606 2.779 0.613841 2.69617 0.696821C1.66247 1.73252 1.08988 3.07948 1.08988 3.07948C0.5 4.48111 0.5 6.00005 0.5 6.00005C0.5 7.51899 1.0892 8.919 1.0892 8.919C1.66229 10.2675 2.69617 11.3033 2.69617 11.3033C2.78985 11.3971 2.91698 11.4499 3.04959 11.45C3.05744 11.45 3.06576 11.4499 3.07361 11.4495C3.19777 11.4436 3.3153 11.3917 3.40328 11.3039C3.49724 11.2101 3.55005 11.0828 3.55005 10.9501C3.55005 10.9416 3.54983 10.9331 3.5494 10.9246C3.54312 10.8011 3.49129 10.6843 3.40393 10.5968C2.50687 9.69812 2.0109 8.5311 2.0109 8.5311C1.5 7.31714 1.5 6.00005 1.5 6.00005C1.5 4.68296 2.01022 3.47062 2.01022 3.47062C2.50678 2.30219 3.4036 1.4036 3.4036 1.4036Z" fill="#1C1C1C"/>
<path d="M13.3043 0.697127L13.3036 0.696495C13.21 0.60284 13.083 0.550171 12.9505 0.550049C12.8181 0.550049 12.6906 0.602601 12.5968 0.69617C12.5031 0.789939 12.4501 0.917441 12.4501 1.05005C12.4501 1.1825 12.5026 1.30954 12.5962 1.40328C13.4932 2.30198 13.9892 3.469 13.9892 3.469C14.5001 4.68296 14.5001 6.00005 14.5001 6.00005C14.5001 7.31714 13.9899 8.52948 13.9899 8.52948C13.4932 9.69812 12.5962 10.5968 12.5962 10.5968C12.5026 10.6906 12.4501 10.8176 12.4501 10.95C12.4502 11.0827 12.503 11.2102 12.5968 11.3039C12.6906 11.3975 12.8176 11.45 12.9501 11.45C13.0827 11.4499 13.2103 11.3971 13.304 11.3033C14.3378 10.2675 14.9102 8.92062 14.9102 8.92062C15.5001 7.51899 15.5001 6.00005 15.5001 6.00005C15.5001 4.48111 14.9109 3.0811 14.9109 3.0811C14.3379 1.7328 13.3043 0.697127 13.3043 0.697127Z" fill="#1C1C1C"/>
</svg>
