<svg width="40" height="12" viewBox="0 0 40 12" fill="none" xmlns="http://www.w3.org/2000/svg">
<path d="M5.9308 9.92101C5.53421 10.2668 4.94515 10.4397 4.16364 10.4397C3.4521 10.4397 2.85139 10.3187 2.36148 10.0766C1.87158 9.82304 1.49248 9.56946 1.2242 9.31588C1.0609 9.37351 0.915092 9.47149 0.786783 9.6098C0.670139 9.73659 0.611816 9.89796 0.611816 10.0939C0.611816 10.3244 0.757621 10.5607 1.04923 10.8028C1.35251 11.0333 1.7666 11.2293 2.29149 11.3906C2.82806 11.5405 3.4521 11.6154 4.16364 11.6154C5.37674 11.6154 6.31572 11.333 6.9806 10.7682C7.65713 10.2034 7.9954 9.46572 7.9954 8.55514C7.9954 7.7022 7.72712 7.03367 7.19056 6.54956C6.66566 6.06546 5.94246 5.69662 5.02097 5.44304L3.95368 5.13182C3.31213 4.9474 2.84556 4.7284 2.55394 4.47483C2.274 4.22125 2.13402 3.89275 2.13402 3.48932C2.13402 2.98217 2.33232 2.58451 2.72891 2.29635C3.1255 1.99666 3.66207 1.84682 4.3386 1.84682C4.92182 1.84682 5.45839 1.93327 5.94829 2.10616C6.44987 2.27906 6.84646 2.48077 7.13807 2.7113C7.26637 2.64214 7.37136 2.54993 7.45301 2.43466C7.53466 2.30788 7.57548 2.16956 7.57548 2.01972C7.57548 1.78919 7.42968 1.57019 7.13807 1.36272C6.85812 1.15524 6.46736 0.98811 5.96579 0.861321C5.47588 0.723005 4.91599 0.653847 4.28611 0.653847C3.20132 0.653847 2.33232 0.907426 1.67911 1.41458C1.0259 1.91022 0.699299 2.6018 0.699299 3.48932C0.699299 3.9619 0.792615 4.37685 0.979246 4.73417C1.17754 5.07996 1.45749 5.37388 1.81909 5.61593C2.18068 5.84646 2.60644 6.03664 3.09634 6.18648L4.61855 6.63601C5.28342 6.82043 5.76749 7.06825 6.07077 7.37946C6.38571 7.69067 6.54318 8.08256 6.54318 8.55514C6.54318 9.10841 6.33905 9.5637 5.9308 9.92101Z" fill="black" fill-opacity="0.4"/>
<path d="M16.1577 3.90427C16.7759 4.37685 17.085 5.11454 17.085 6.11733V11.356C17.0267 11.3791 16.9334 11.4021 16.8051 11.4252C16.6885 11.4598 16.566 11.4771 16.4377 11.4771C16.1811 11.4771 15.9886 11.431 15.8603 11.3388C15.7436 11.235 15.6853 11.0736 15.6853 10.8546V6.18648C15.6853 5.54101 15.4987 5.06843 15.1254 4.76875C14.7638 4.46906 14.2739 4.31922 13.6557 4.31922C13.1891 4.31922 12.775 4.37685 12.4134 4.49211C12.0518 4.60738 11.7427 4.73993 11.4861 4.88977V11.356C11.4278 11.3791 11.3403 11.4021 11.2237 11.4252C11.107 11.4598 10.9787 11.4771 10.8387 11.4771C10.5938 11.4771 10.4072 11.431 10.2789 11.3388C10.1505 11.235 10.0864 11.0736 10.0864 10.8546V4.95893C10.0864 4.71688 10.133 4.52093 10.2264 4.37109C10.3313 4.20972 10.5063 4.05411 10.7513 3.90427C11.0545 3.73138 11.457 3.57001 11.9585 3.42017C12.4601 3.2588 13.0258 3.17811 13.6557 3.17811C14.7172 3.17811 15.5512 3.42017 16.1577 3.90427Z" fill="black" fill-opacity="0.4"/>
<path fill-rule="evenodd" clip-rule="evenodd" d="M27.2122 7.39675C27.2122 8.2497 27.0489 8.99315 26.7223 9.62709C26.3957 10.261 25.9349 10.7509 25.34 11.0967C24.7452 11.4425 24.0453 11.6154 23.2404 11.6154C22.4356 11.6154 21.7299 11.4425 21.1234 11.0967C20.5285 10.7509 20.0677 10.261 19.7411 9.62709C19.4145 8.99315 19.2512 8.2497 19.2512 7.39675C19.2512 6.53227 19.4145 5.78883 19.7411 5.1664C20.0794 4.53246 20.546 4.04259 21.1409 3.6968C21.7474 3.35101 22.4473 3.17811 23.2404 3.17811C24.0336 3.17811 24.7277 3.35101 25.3225 3.6968C25.9174 4.04259 26.3782 4.53246 26.7048 5.1664C27.0431 5.78883 27.2122 6.53227 27.2122 7.39675ZM23.2404 4.31922C22.4589 4.31922 21.8349 4.59585 21.3683 5.14912C20.9134 5.69085 20.6859 6.44006 20.6859 7.39675C20.6859 8.36496 20.9076 9.11994 21.3508 9.66167C21.8057 10.2034 22.4356 10.4743 23.2404 10.4743C24.0336 10.4743 24.6518 10.2034 25.0951 9.66167C25.55 9.10841 25.7775 8.35343 25.7775 7.39675C25.7775 6.44006 25.55 5.69085 25.0951 5.14912C24.6518 4.59585 24.0336 4.31922 23.2404 4.31922Z" fill="black" fill-opacity="0.4"/>
<path d="M34.3661 5.44304C34.1562 6.16919 33.9287 6.89535 33.6838 7.62151C33.4505 8.34767 33.223 9.02772 33.0014 9.66167C32.7798 10.2956 32.5756 10.8431 32.389 11.3042C32.2957 11.3618 32.1907 11.4079 32.0741 11.4425C31.9574 11.4771 31.8 11.4944 31.6017 11.4944C31.415 11.4944 31.2401 11.4598 31.0768 11.3906C30.9251 11.333 30.8201 11.235 30.7618 11.0967C30.6452 10.8662 30.511 10.5319 30.3594 10.0939C30.2194 9.65591 30.0678 9.15451 29.9045 8.58972C29.7528 8.02493 29.5954 7.44285 29.4321 6.84349C29.2688 6.23259 29.1171 5.64475 28.9772 5.07996C28.8489 4.51517 28.738 4.01377 28.6447 3.57577C28.7264 3.49509 28.8255 3.42017 28.9422 3.35101C29.0705 3.28185 29.2221 3.24727 29.3971 3.24727C29.6187 3.24727 29.782 3.31067 29.887 3.43746C30.0036 3.55272 30.0853 3.7429 30.1319 4.00801C30.2369 4.49211 30.3536 5.03961 30.4819 5.65051C30.6218 6.26141 30.7618 6.86654 30.9018 7.46591C31.0534 8.06528 31.1876 8.60701 31.3042 9.09112C31.4325 9.5637 31.5258 9.91525 31.5842 10.1458H31.6542C31.7475 9.86915 31.8933 9.41962 32.0916 8.7972C32.2899 8.16325 32.5232 7.44285 32.7914 6.63601C33.0714 5.82917 33.3513 5.0108 33.6313 4.1809C33.7246 4.12327 33.8354 4.08293 33.9637 4.05988C34.092 4.0253 34.232 4.00801 34.3836 4.00801C34.5936 4.00801 34.7686 4.04835 34.9085 4.12904C35.0485 4.19819 35.1418 4.30769 35.1885 4.45754C35.4684 5.25285 35.7309 6.03664 35.9758 6.80891C36.2208 7.56964 36.4366 8.2497 36.6232 8.84907C36.8098 9.43691 36.944 9.87491 37.0256 10.1631H37.1131C37.3814 9.13722 37.673 8.03646 37.9879 6.86077C38.3029 5.68509 38.5595 4.53246 38.7578 3.40288C38.9211 3.29914 39.1194 3.24727 39.3527 3.24727C39.551 3.24727 39.7084 3.29338 39.8251 3.38559C39.9417 3.4778 40.0001 3.62188 40.0001 3.81782C40.0001 3.94461 39.9592 4.18667 39.8776 4.54398C39.8076 4.9013 39.7084 5.32201 39.5801 5.80612C39.4518 6.29022 39.306 6.80891 39.1427 7.36217C38.9911 7.90391 38.8336 8.43412 38.6703 8.9528C38.507 9.45996 38.3495 9.92101 38.1979 10.336C38.0579 10.7509 37.9354 11.0736 37.8305 11.3042C37.7721 11.3503 37.673 11.3906 37.533 11.4252C37.4047 11.4713 37.2531 11.4944 37.0781 11.4944C36.5999 11.4944 36.3199 11.3849 36.2383 11.1659C36.075 10.7509 35.8883 10.238 35.6784 9.62709C35.4684 9.00467 35.2526 8.33614 35.031 7.62151L34.3661 5.44304Z" fill="black" fill-opacity="0.4"/>
</svg>
