<svg width="14" height="13" viewBox="0 0 14 13" fill="none" xmlns="http://www.w3.org/2000/svg">
<path fill-rule="evenodd" clip-rule="evenodd" d="M7 0.5C7 0.5 7.91519 0.5 8.75176 0.853838C8.75176 0.853838 9.55941 1.19544 10.182 1.81802C10.182 1.81802 10.8046 2.4406 11.1462 3.24824C11.1462 3.24824 11.5 4.08481 11.5 5C11.5 5 11.5 5.91519 11.1462 6.75176C11.1462 6.75176 10.8046 7.55941 10.182 8.18198C10.182 8.18198 9.5594 8.80456 8.75176 9.14616C8.75176 9.14616 7.91519 9.5 7 9.5C7 9.5 6.08481 9.5 5.24824 9.14616C5.24824 9.14616 4.4406 8.80456 3.81802 8.18198C3.81802 8.18198 3.19545 7.55941 2.85384 6.75176C2.85384 6.75176 2.5 5.91519 2.5 5C2.5 5 2.5 4.08481 2.85384 3.24824C2.85384 3.24824 3.19544 2.44059 3.81802 1.81802C3.81802 1.81802 4.4406 1.19544 5.24824 0.853837C5.24824 0.853837 6.08481 0.5 7 0.5ZM7 1.5C7 1.5 5.55025 1.5 4.52513 2.52513C4.52513 2.52513 3.5 3.55025 3.5 5C3.5 5 3.5 6.44975 4.52513 7.47487C4.52513 7.47487 5.55025 8.5 7 8.5C7 8.5 8.44975 8.5 9.47487 7.47487C9.47487 7.47487 10.5 6.44975 10.5 5C10.5 5 10.5 3.55025 9.47487 2.52513C9.47487 2.52513 8.44975 1.5 7 1.5Z" fill="#1C1C1C"/>
<path d="M10.2503 10.3704C11.7587 11.2414 12.6295 12.75 12.6295 12.75C12.6958 12.8648 12.805 12.9486 12.933 12.983C12.9753 12.9943 13.0188 13 13.0625 13C13.0677 13 13.073 12.9999 13.0782 12.9998C13.1606 12.9972 13.2411 12.9743 13.3125 12.933C13.4672 12.8437 13.5625 12.6787 13.5625 12.5C13.5625 12.4923 13.5623 12.4846 13.562 12.4769C13.5583 12.397 13.5355 12.3193 13.4955 12.25C12.4908 10.5094 10.7503 9.50443 10.7503 9.50443C9.0098 8.49945 7 8.49945 7 8.49945C4.9902 8.49945 3.2497 9.50443 3.2497 9.50443C1.50934 10.5093 0.504622 12.2498 0.504622 12.2498C0.460752 12.3258 0.4375 12.4123 0.4375 12.5L0.437582 12.5091C0.438318 12.5497 0.444016 12.5902 0.454549 12.6295C0.488882 12.7576 0.572692 12.8668 0.68754 12.933C0.76354 12.9769 0.849747 13 0.9375 13C0.946754 13 0.956006 12.9998 0.965246 12.9992C1.13375 12.9899 1.28617 12.8961 1.37054 12.75C2.24131 11.2414 3.74974 10.3704 3.74974 10.3704C5.25817 9.49945 7 9.49945 7 9.49945C8.74183 9.49945 10.2503 10.3704 10.2503 10.3704Z" fill="#1C1C1C"/>
</svg>
